<svg id="圖層_1" data-name="圖層 1" xmlns="http://www.w3.org/2000/svg" viewBox="0 0 80 80"><defs><style>.cls-1{fill:#3a74ba}</style></defs><path class="cls-1" d="M57.16 11.5H21a7.69 7.69 0 00-7.68 7.68V33.1a1 1 0 001 1h7.27a1 1 0 100-2h-6.34V19.18a5.73 5.73 0 0111.45 0v50.34a1 1 0 001 1h38.03a1 1 0 001-1V21.05a9.56 9.56 0 00-9.57-9.55zm7.59 57H28.66V19.18a7.66 7.66 0 00-2.57-5.72h31.07a7.6 7.6 0 017.59 7.59z"/><path class="cls-1" d="M59 62.21H35a1 1 0 000 1.95h24a1 1 0 100-1.95zm0-6.07H35a1 1 0 000 2h24a1 1 0 100-2zm0-6.07H35a1 1 0 000 2h24a1 1 0 100-2zM59 44H35a1 1 0 000 2h24a1 1 0 000-2zm-12.7-9.55a2 2 0 01-2.1-1.85 1.54 1.54 0 10-3.07 0 5 5 0 003.64 4.68v.26a1.54 1.54 0 103.07 0v-.26a5 5 0 003.64-4.68 5.06 5.06 0 00-5.18-4.93 2 2 0 01-2.1-1.86 2.12 2.12 0 014.2 0 1.54 1.54 0 003.08 0 5 5 0 00-3.64-4.68v-.08a1.54 1.54 0 10-3.07 0v.08a5 5 0 00-3.64 4.68 5.06 5.06 0 005.17 4.93 1.87 1.87 0 110 3.71z"/></svg>