<svg id="圖層_1" data-name="圖層 1" xmlns="http://www.w3.org/2000/svg" viewBox="0 0 80 80"><defs><style>.cls-1{fill:#3a74ba}</style></defs><path class="cls-1" d="M77.49 13.05a3.62 3.62 0 00-3.64-3.7h-3.62V8.17a3.58 3.58 0 00-3.69-3.66h-2.42a3.58 3.58 0 00-3.56 3.55v1.25h-2.43V8.16a3.59 3.59 0 00-3.62-3.65H52a3.59 3.59 0 00-3.56 3.56v1.24H46V8.15a3.57 3.57 0 00-3.6-3.64h-2.5a3.59 3.59 0 00-3.55 3.57V9.3h-2.43V8.22a3.58 3.58 0 00-3.71-3.71h-2.27a3.59 3.59 0 00-3.7 3.65v1.19h-3.3a3.61 3.61 0 00-4 3.92v25.14H2.5v26.64h12.07c0 3 1.67 5.08 3.48 7.2l-1 .07v7.18h21.66v-7.21h-.49l-.55-.05c1.9-2.14 3.51-4.24 3.51-7.24H55.7v-2.4h18.07a3.58 3.58 0 003.72-3.7V13.05M63 8.24a1.24 1.24 0 011.34-1.31h2.12a1.26 1.26 0 011.37 1.36v4.46a1.27 1.27 0 01-1.38 1.43h-2.12A1.24 1.24 0 0163 12.85V8.24M52.28 6.92h2a1.3 1.3 0 011.46 1.44v4.46a1.27 1.27 0 01-1.38 1.36h-2a1.27 1.27 0 01-1.42-1.39V8.33a1.28 1.28 0 011.41-1.41M38.77 8.3a1.25 1.25 0 011.36-1.37h2.12a1.25 1.25 0 011.35 1.38v4.46a1.28 1.28 0 01-1.4 1.41h-2.05a1.27 1.27 0 01-1.39-1.42V8.3m-10.7-1.37h2a1.28 1.28 0 011.4 1.41v4.46a1.27 1.27 0 01-1.36 1.38h-2.12a1.25 1.25 0 01-1.35-1.38V8.35a1.28 1.28 0 011.4-1.42m-7.15 4.84h3.33V13a3.59 3.59 0 003.59 3.6h2.42a3.58 3.58 0 003.67-3.68v-1.1h2.43V13a3.59 3.59 0 003.59 3.6h2.42A3.59 3.59 0 0046 12.92v-1.13h2.42V13a3.59 3.59 0 003.6 3.6h2.42a3.59 3.59 0 003.66-3.69v-1.1h2.42V13a3.59 3.59 0 003.61 3.59h2.42a3.58 3.58 0 003.65-3.69v-1.12c1.3 0 2.55-.06 3.8 0a1.14 1.14 0 011 1.27v5.89H19.45c0-.15-.05-.34-.05-.53v-5.14c0-1.07.46-1.52 1.51-1.53m-16 29.1h4.55c-.06 2-2.08 4.05-4.57 4.61zM7.24 62.6H4.93V58a5.84 5.84 0 014.61 4.6zm8.1-9.44a4.83 4.83 0 00-.75 2.14c-.09 2.39 0 4.79 0 7.24h-2.51a8.7 8.7 0 00-7.17-7.16V48a8.67 8.67 0 004.74-2.4 8.53 8.53 0 002.4-4.74h9.22l-.58.52a13 13 0 00-4.91 10.41 2.56 2.56 0 01-.44 1.37m16.13-14.82h-7.18V36h7.18zm-7.17-12h7.17v7.18H24.3zm15.49 23.42a10.87 10.87 0 01-9.33 12.71 21.12 21.12 0 01-2.64.11.91.91 0 01-.67-.4 7.33 7.33 0 00-2.47-2.6 1.18 1.18 0 01-.42-.75c-.08-.7 0-1.42-.11-2.11-.55-2.94-2.72-4.78-6-5a10.75 10.75 0 014-8.39 10.88 10.88 0 0117.57 6.48m1.34-11.42H34V36h7.17zM34 26.32h7.18v7.18H34zm2.32 50.76H19.43v-2.34h16.86zm1.06-8.33c-.81 1-1.61 2.07-2.47 3.06a1.37 1.37 0 01-.93.46H21.81a1.41 1.41 0 01-.93-.46c-.87-1-1.69-2.07-2.52-3.12a6.18 6.18 0 01-1.35-4v-8.91c0-1.33.62-1.83 1.92-1.55a3.6 3.6 0 012.91 3.56v3.28c2.65.68 3.8 2.42 3.63 5.12h2.4v-1.12h10.84a6 6 0 01-1.36 3.68m15.93-6.2h-4.63A5.73 5.73 0 0153.28 58zm0-7.17a8.68 8.68 0 00-7.21 7.16H36.9a13.34 13.34 0 005.49-10.81c0-4.49-2-8-5.55-10.89h11.88a10.13 10.13 0 000 4.71 9.45 9.45 0 004 5.72 1 1 0 01.54 1v3.08M51.52 36c-.56.73-1.11 1.46-1.68 2.18a.57.57 0 01-.37.18h-5.83V36zm-7.87-9.68h7.17v7.17h-7.17zm7.22 16.93a7.26 7.26 0 117.25 7.22 7.33 7.33 0 01-7.25-7.22m2.47-17h7.17v7.25h-7.17zm16.84 7.19H63v-7.12h7.17zm0 2.51v19.36H63v-3.42c0-.18.25-.4.43-.53a9.56 9.56 0 004.39-8.46 9.36 9.36 0 00-2.6-6.27c-.15-.17-.31-.33-.47-.5v-.11zM55.75 52.79h4.77v2.55h-4.77zm19.33-30.41v35.93c0 1.52-.35 1.87-1.86 1.87H55.77v-2.4h16.84V23.93H21.84v14.42h-2.38V21.5h55.62z"/><path class="cls-1" d="M29.22 55.88a1.49 1.49 0 01-1.58-1.38 1.38 1.38 0 10-2.76 0 4.17 4.17 0 003 3.91v.12a1.38 1.38 0 102.76 0v-.12a4.17 4.17 0 003-3.91 4.25 4.25 0 00-4.34-4.14A1.39 1.39 0 1130.8 49a1.38 1.38 0 002.76 0 4.17 4.17 0 00-3-3.91 1.37 1.37 0 00-2.74 0 4.17 4.17 0 00-3 3.91 4.25 4.25 0 004.34 4.14 1.39 1.39 0 110 2.76M63 39.83a1.15 1.15 0 00-1.61 0l-4.88 4.89-1.4-1.57a1.12 1.12 0 00-.78-.38 1.1 1.1 0 00-.83.28 1.12 1.12 0 00-.38.78 1.14 1.14 0 00.28.83l2.21 2.48a1.08 1.08 0 00.77.38h.08a1.19 1.19 0 00.81-.34L63 41.44a1.14 1.14 0 000-1.61"/></svg>