<svg id="圖層_1" data-name="圖層 1" xmlns="http://www.w3.org/2000/svg" viewBox="0 0 80 80"><defs><style>.cls-1{fill:#3a74ba}</style></defs><path class="cls-1" d="M62.26 60.39c-4.78 0-9.87-1.77-9.87-5v-5.54a.77.77 0 111.53 0c0 1.38 3.17 3.31 8.34 3.31s8.35-1.93 8.35-3.31a.77.77 0 111.53 0v5.51c0 3.26-5.09 5.03-9.88 5.03zm-8.34-7.76v2.73c0 1.38 3.17 3.31 8.34 3.31s8.35-1.93 8.35-3.31v-2.73c-1.87 1.47-5.17 2.25-8.35 2.25s-6.48-.78-8.34-2.25z"/><path class="cls-1" d="M62.26 65.94c-4.78 0-9.87-1.76-9.87-5V55.4a.77.77 0 111.53 0c0 1.39 3.17 3.32 8.34 3.32s8.35-1.93 8.35-3.32a.77.77 0 111.53 0v5.51c0 3.27-5.09 5.03-9.88 5.03zm-8.34-7.76v2.73c0 1.39 3.17 3.32 8.34 3.32s8.35-1.93 8.35-3.32v-2.73c-1.87 1.48-5.17 2.25-8.35 2.25s-6.48-.77-8.34-2.25z"/><path class="cls-1" d="M62.26 71.5c-4.78 0-9.87-1.76-9.87-5V61a.77.77 0 111.53 0c0 1.38 3.17 3.31 8.34 3.31s8.35-1.93 8.35-3.31a.77.77 0 111.53 0v5.51c0 3.23-5.09 4.99-9.88 4.99zm-8.34-7.76v2.73c0 1.38 3.17 3.31 8.34 3.31s8.35-1.93 8.35-3.31v-2.73C68.74 65.21 65.44 66 62.26 66s-6.48-.79-8.34-2.26zm8.34-19.88c-4.78 0-9.87-1.76-9.87-5s5.09-5 9.87-5 9.88 1.76 9.88 5-5.09 5-9.88 5zm0-8.34c-5.17 0-8.34 1.93-8.34 3.31s3.17 3.31 8.34 3.31 8.35-1.93 8.35-3.31-3.18-3.31-8.35-3.31z"/><path class="cls-1" d="M62.26 49.32c-4.78 0-9.87-1.76-9.87-5v-5.54a.77.77 0 111.53 0c0 1.38 3.17 3.31 8.34 3.31s8.35-1.93 8.35-3.31a.77.77 0 111.53 0v5.51c0 3.27-5.09 5.03-9.88 5.03zm-8.34-7.76v2.73c0 1.38 3.17 3.31 8.34 3.31s8.35-1.93 8.35-3.31v-2.73c-1.87 1.47-5.17 2.25-8.35 2.25s-6.48-.81-8.34-2.25z"/><path class="cls-1" d="M62.26 54.88c-4.78 0-9.87-1.77-9.87-5v-5.54a.77.77 0 111.53 0c0 1.38 3.17 3.31 8.34 3.31s8.35-1.93 8.35-3.31a.77.77 0 111.53 0v5.51c0 3.26-5.09 5.03-9.88 5.03zm-8.34-7.77v2.74c0 1.38 3.17 3.31 8.34 3.31s8.35-1.93 8.35-3.31v-2.74c-1.87 1.48-5.17 2.25-8.35 2.25s-6.48-.77-8.34-2.25zm-36.18 7.77c-4.79 0-9.88-1.77-9.88-5s5.09-5 9.88-5 9.87 1.76 9.87 5-5.09 5-9.87 5zm0-8.35c-5.17 0-8.35 1.93-8.35 3.32s3.18 3.31 8.35 3.31 8.34-1.93 8.34-3.31-3.17-3.32-8.34-3.32z"/><path class="cls-1" d="M17.74 60.39c-4.79 0-9.88-1.77-9.88-5v-5.54a.82.82 0 01.77-.85.81.81 0 01.76.86c0 1.38 3.18 3.31 8.35 3.31s8.34-1.93 8.34-3.31a.77.77 0 111.53 0v5.51c0 3.25-5.09 5.02-9.87 5.02zm-8.35-7.76v2.73c0 1.38 3.18 3.31 8.35 3.31s8.34-1.93 8.34-3.31v-2.73c-1.86 1.47-5.17 2.25-8.34 2.25s-6.48-.78-8.35-2.25z"/><path class="cls-1" d="M17.74 65.94c-4.79 0-9.88-1.76-9.88-5V55.4a.82.82 0 01.77-.85.81.81 0 01.76.85c0 1.39 3.18 3.32 8.35 3.32s8.34-1.93 8.34-3.32a.77.77 0 111.53 0v5.51c0 3.27-5.09 5.03-9.87 5.03zm-8.35-7.76v2.73c0 1.39 3.18 3.32 8.35 3.32s8.34-1.93 8.34-3.32v-2.73c-1.86 1.48-5.17 2.25-8.34 2.25s-6.48-.77-8.35-2.25z"/><path class="cls-1" d="M17.74 71.5c-4.79 0-9.88-1.76-9.88-5V61a.83.83 0 01.77-.86.82.82 0 01.76.86c0 1.38 3.18 3.31 8.35 3.31s8.34-1.93 8.34-3.31a.77.77 0 111.53 0v5.51c0 3.23-5.09 4.99-9.87 4.99zm-8.35-7.76v2.73c0 1.38 3.18 3.31 8.35 3.31s8.34-1.93 8.34-3.31v-2.73C24.22 65.21 20.91 66 17.74 66s-6.48-.79-8.35-2.26zM40 60.39c-4.79 0-9.87-1.77-9.87-5v-5.54a.77.77 0 111.52 0c0 1.38 3.18 3.31 8.35 3.31s8.35-1.93 8.35-3.31a.77.77 0 111.52 0v5.51c-.01 3.26-5.09 5.03-9.87 5.03zm-8.35-7.76v2.73c0 1.38 3.18 3.31 8.35 3.31s8.35-1.93 8.35-3.31v-2.73c-1.87 1.47-5.18 2.25-8.35 2.25s-6.49-.78-8.36-2.25z"/><path class="cls-1" d="M40 65.94c-4.79 0-9.87-1.76-9.87-5V55.4a.76.76 0 111.52 0c0 1.39 3.18 3.32 8.35 3.32s8.35-1.93 8.35-3.32a.76.76 0 111.52 0v5.51c-.01 3.27-5.09 5.03-9.87 5.03zm-8.35-7.76v2.73c0 1.39 3.18 3.32 8.35 3.32s8.35-1.93 8.35-3.32v-2.73c-1.87 1.48-5.18 2.25-8.35 2.25s-6.49-.77-8.36-2.25z"/><path class="cls-1" d="M40 71.5c-4.79 0-9.87-1.76-9.87-5V61a.77.77 0 111.52 0c0 1.38 3.18 3.31 8.35 3.31s8.35-1.93 8.35-3.31a.77.77 0 111.52 0v5.51c-.01 3.23-5.09 4.99-9.87 4.99zm-8.35-7.76v2.73c0 1.38 3.18 3.31 8.35 3.31s8.35-1.93 8.35-3.31v-2.73C46.47 65.21 43.16 66 40 66s-6.49-.79-8.36-2.26zM40 54.88c-4.79 0-9.87-1.77-9.87-5v-5.54a.77.77 0 111.52 0c0 1.38 3.18 3.31 8.35 3.31s8.35-1.93 8.35-3.31a.77.77 0 111.52 0v5.51c-.01 3.26-5.09 5.03-9.87 5.03zm-8.35-7.77v2.74c0 1.38 3.18 3.31 8.35 3.31s8.35-1.93 8.35-3.31v-2.74c-1.87 1.48-5.18 2.25-8.35 2.25s-6.49-.77-8.36-2.25z"/><path class="cls-1" d="M40 49.32c-4.79 0-9.87-1.77-9.87-5s5.08-5 9.87-5 9.87 1.76 9.87 5-5.07 5-9.87 5zM40 41c-5.17 0-8.35 1.93-8.35 3.32S34.84 47.6 40 47.6s8.35-1.93 8.35-3.31S45.18 41 40 41zm-29-1.1a1 1 0 01-.83-.41 1 1 0 01.22-1.49l21.17-16.25a1.05 1.05 0 011.42.14l7.59 8.51 24.3-19a1 1 0 011.47.18 1.06 1.06 0 01-.18 1.47L41.09 32.66a1.05 1.05 0 01-1.43-.13L32.06 24l-20.4 15.68a1 1 0 01-.66.22z"/><path class="cls-1" d="M65.31 21.18h-.23a1 1 0 01-.79-1.26l1.81-8.14-8.46-1.17a1.05 1.05 0 01.29-2.08l9.58 1.34a1.06 1.06 0 01.72.44 1 1 0 01.16.82l-2.06 9.25a1 1 0 01-1.02.8z"/></svg>