<svg id="圖層_1" data-name="圖層 1" xmlns="http://www.w3.org/2000/svg" viewBox="0 0 80 80"><defs><style>.cls-1{fill:#3a74ba}</style></defs><path class="cls-1" d="M41.66 48.89v-.28a5.36 5.36 0 003.92-5A5.46 5.46 0 0040 38.24a2 2 0 112.26-2 1.66 1.66 0 103.32 0 5.34 5.34 0 00-3.92-5v-.09a1.66 1.66 0 10-3.32 0v.09a5.34 5.34 0 00-3.92 5A5.47 5.47 0 0040 41.56a2 2 0 11-2.26 2 1.66 1.66 0 00-3.32 0 5.36 5.36 0 003.92 5v.28a1.66 1.66 0 003.32 0z"/><path class="cls-1" d="M61.92 40A21.92 21.92 0 1040 61.92 21.94 21.94 0 0061.92 40zm-41.34 0A19.42 19.42 0 1140 59.42 19.44 19.44 0 0120.58 40z"/><path class="cls-1" d="M56.87 40A16.87 16.87 0 1040 56.87 16.89 16.89 0 0056.87 40zm-31.24 0A14.37 14.37 0 1140 54.37 14.38 14.38 0 0125.63 40zm50.96 2l-3.41-3.45a1.09 1.09 0 00-1.47-.07L67.9 41.7a1.08 1.08 0 00-.12 1.52 1.09 1.09 0 001.53.13l1.89-1.61A30.26 30.26 0 0141 70.34a1.08 1.08 0 100 2.16 32.42 32.42 0 0032.36-30.69l1.69 1.71a1.11 1.11 0 00.77.32 1.14 1.14 0 00.77-.31 1.1 1.1 0 000-1.53zM39 9.66a1.08 1.08 0 100-2.16A32.42 32.42 0 006.64 38.19L5 36.48A1.09 1.09 0 103.41 38l3.41 3.45a1.05 1.05 0 00.77.32 1.07 1.07 0 00.7-.25l3.81-3.22a1.08 1.08 0 00.12-1.52 1.09 1.09 0 00-1.53-.13L8.8 38.26A30.26 30.26 0 0139 9.66z"/></svg>