<svg id="圖層_1" data-name="圖層 1" xmlns="http://www.w3.org/2000/svg" viewBox="0 0 80 80"><defs><style>.cls-1{fill:#3a74ba}</style></defs><path class="cls-1" d="M12.49 72.82a4.46 4.46 0 010-8.91h19.92v-.07a24 24 0 01-1-2.38.19.19 0 010-.07H12.49a4.45 4.45 0 010-8.9H29.9v-.07c0-.81.09-1.6.19-2.38V50h-17.6a4.45 4.45 0 010-8.9H33.1a.43.43 0 000-.07 24 24 0 011.58-2.38l.05-.07H12.49a4.45 4.45 0 010-8.9h35.42a24 24 0 016.32-.86h.53a24.69 24.69 0 015.87.86h2.27a6.91 6.91 0 000-13.81H51.43a6.8 6.8 0 001.67-4.47 6.91 6.91 0 00-6.9-6.9H8.31a6.9 6.9 0 000 13.8h11.47a6.78 6.78 0 000 8.89h-7.29A6.89 6.89 0 008.62 39.8a6.89 6.89 0 000 11.43 6.88 6.88 0 000 11.42 6.9 6.9 0 003.87 12.62H44.1a24.13 24.13 0 01-4.17-2.45zM62.9 18.3a4.46 4.46 0 010 8.91H24.8a4.45 4.45 0 01.2-8.91h37.9zM8.31 15.85a4.45 4.45 0 010-8.9H46.2a4.45 4.45 0 010 8.9H8.31z"/><path class="cls-1" d="M60.63 29.66a24.69 24.69 0 00-5.87-.86h-.53a24 24 0 00-6.32.86h-.08a24.4 24.4 0 00-13.06 8.88l-.05.07A24 24 0 0033.14 41a.43.43 0 010 .07 24.24 24.24 0 00-3 8.9.22.22 0 000 .08c-.1.78-.16 1.57-.19 2.38v.72a24 24 0 001.47 8.25v.07a24 24 0 001 2.38v.07a24.39 24.39 0 007.52 8.91 24.32 24.32 0 0014.3 4.68 24.35 24.35 0 006.4-47.84m-6.4 45.39c-.64 0-1.27 0-1.9-.1a21.5 21.5 0 01-7.67-2.13 22 22 0 01-9.48-8.91v-.07A22.75 22.75 0 0134 61.46v-.07a21.79 21.79 0 01-1.63-8.25v-.65a.17.17 0 000-.07 20.63 20.63 0 01.2-2.42A21.6 21.6 0 0136 41.06a.25.25 0 010-.06 21.43 21.43 0 011.86-2.38l.07-.07a21.83 21.83 0 0115.83-7.29h.46a22.8 22.8 0 012.49.15 21.91 21.91 0 01-2.49 43.67"/><path class="cls-1" d="M54.23 46.7a2.44 2.44 0 01.39.07 2.36 2.36 0 012 1.61 1.77 1.77 0 01.13.55 1.86 1.86 0 103.71 0 5.9 5.9 0 00-3.46-5.3 6.46 6.46 0 00-.9-.35v-.09a1.85 1.85 0 10-3.7 0v.09a6 6 0 00-4.4 5.65 4.93 4.93 0 00.11 1V50a5.88 5.88 0 001.09 2.38.46.46 0 01.07.07 6.32 6.32 0 005 2.39h.07a2.25 2.25 0 11-.07 4.47h-.12a2.37 2.37 0 01-2.41-2.22 1.86 1.86 0 10-3.71 0 5.73 5.73 0 001.93 4.27l.1.07a6.35 6.35 0 002.36 1.31v.32a1.42 1.42 0 00.08.4 1.79 1.79 0 003.29.6 1.74 1.74 0 00.33-1v-.32a6 6 0 004.39-5.65 6.09 6.09 0 00-6.17-5.94h-.2a2.62 2.62 0 01-1.79-.8 2.18 2.18 0 01-.44-.66 2 2 0 01-.17-.76 2.39 2.39 0 012.53-2.23M49 68.77a15.84 15.84 0 01-7.1-4.86l-.06-.07a15.48 15.48 0 01-1.64-2.38.25.25 0 010-.07 15.82 15.82 0 01-2-8.9v-.07a15.19 15.19 0 01.31-2.42v-.08c.12-.49.25-1 .42-1.47a5.3 5.3 0 00.16-.73 1.52 1.52 0 00-1.26-1.43 1.48 1.48 0 00-1.66 1.19 23.07 23.07 0 00-.61 2.52.22.22 0 000 .08 19.72 19.72 0 00-.33 2.38v.07a17.68 17.68 0 001.63 8.9v.07a19.36 19.36 0 001.33 2.38.43.43 0 000 .07c.24.36.45.73.71 1.08a18.24 18.24 0 009.19 6.6 1.49 1.49 0 002.1-1.21c0-.77-.35-1.3-1.28-1.61m5.67.95a1.78 1.78 0 00-.47-.09 1.47 1.47 0 00-1.47 1.48 1.44 1.44 0 00.29.84 1.46 1.46 0 101.65-2.23M69.44 41.5a18.24 18.24 0 00-9.19-6.6 1.49 1.49 0 00-2.1 1.21c0 .77.35 1.3 1.28 1.61A16 16 0 0169.45 58a5.3 5.3 0 00-.16.73 1.52 1.52 0 001.26 1.43A1.48 1.48 0 0072.21 59a18.55 18.55 0 00-2.77-17.5M54 36.7a1.24 1.24 0 00.16 0 1.48 1.48 0 001.48-1.48 1.44 1.44 0 00-.83-1.22 1.4 1.4 0 00-.7-.21 1.48 1.48 0 00-1.47 1.48A1.45 1.45 0 0054 36.7"/></svg>