<svg id="圖層_1" data-name="圖層 1" xmlns="http://www.w3.org/2000/svg" viewBox="0 0 80 80"><defs><style>.cls-1{fill:#3a74ba}</style></defs><path class="cls-1" d="M70.6 34.9a11.74 11.74 0 01-1.35-2.74A12.21 12.21 0 0169 29a9.9 9.9 0 00-.88-5.24A9.9 9.9 0 0064 20.34a11.78 11.78 0 01-2.6-1.75A11.78 11.78 0 0159.66 16a9.9 9.9 0 00-3.41-4.14A9.9 9.9 0 0051 11a12.21 12.21 0 01-3.17-.22A11.74 11.74 0 0145.1 9.4 10.22 10.22 0 0040 7.5a10.22 10.22 0 00-5.1 1.9 11.74 11.74 0 01-2.74 1.35A12.21 12.21 0 0129 11a9.9 9.9 0 00-5.24.88A9.9 9.9 0 0020.34 16a11.78 11.78 0 01-1.75 2.6A11.78 11.78 0 0116 20.34a9.9 9.9 0 00-4.14 3.41A9.9 9.9 0 0011 29a12.21 12.21 0 01-.22 3.17A11.74 11.74 0 019.4 34.9 10.22 10.22 0 007.5 40a10.22 10.22 0 001.9 5.1 11.74 11.74 0 011.35 2.74A12.21 12.21 0 0111 51a9.9 9.9 0 00.88 5.24A9.9 9.9 0 0016 59.66a11.78 11.78 0 012.6 1.75A11.78 11.78 0 0120.34 64a9.9 9.9 0 003.41 4.14A9.9 9.9 0 0029 69a12.21 12.21 0 013.17.22 11.74 11.74 0 012.73 1.38 10.22 10.22 0 005.1 1.9 10.22 10.22 0 005.1-1.9 11.74 11.74 0 012.74-1.35A12.21 12.21 0 0151 69a9.9 9.9 0 005.24-.88A9.9 9.9 0 0059.66 64a11.78 11.78 0 011.75-2.6A11.78 11.78 0 0164 59.66a9.9 9.9 0 004.14-3.41A9.9 9.9 0 0069 51a12.21 12.21 0 01.22-3.17 11.74 11.74 0 011.38-2.73 10.22 10.22 0 001.9-5.1 10.22 10.22 0 00-1.9-5.1zm-2.18 8.9a13.48 13.48 0 00-1.62 3.38 14.4 14.4 0 00-.31 3.87A8 8 0 0166 55a8.18 8.18 0 01-3.18 2.47 14.26 14.26 0 00-3.16 2.16 14.26 14.26 0 00-2.16 3.16A8.18 8.18 0 0155 66a8 8 0 01-3.93.54 14.37 14.37 0 00-3.87.31 13.48 13.48 0 00-3.38 1.62A8.2 8.2 0 0140 70a8.2 8.2 0 01-3.8-1.54 13.48 13.48 0 00-3.38-1.62 11.58 11.58 0 00-3.05-.31H29a8 8 0 01-4-.53 8.18 8.18 0 01-2.47-3.18 14.26 14.26 0 00-2.16-3.16 14.26 14.26 0 00-3.16-2.16 8.18 8.18 0 01-3.16-2.5 8 8 0 01-.54-3.93 14.37 14.37 0 00-.31-3.87 13.48 13.48 0 00-1.62-3.38A8.2 8.2 0 0110 40a8.2 8.2 0 011.54-3.8 13.48 13.48 0 001.62-3.38 14.4 14.4 0 00.35-3.82 8 8 0 01.54-4 8.18 8.18 0 013.18-2.47 14.26 14.26 0 003.16-2.16 14.26 14.26 0 002.16-3.16A8.18 8.18 0 0125 14.05a8 8 0 014-.54 14.37 14.37 0 003.87-.31 13.48 13.48 0 003.38-1.62A8.2 8.2 0 0140 10a8.2 8.2 0 013.8 1.54 13.48 13.48 0 003.38 1.62 14.37 14.37 0 003.87.31 8 8 0 013.93.54 8.18 8.18 0 012.47 3.18 14.26 14.26 0 002.16 3.16 14.26 14.26 0 003.16 2.16A8.18 8.18 0 0166 25a8 8 0 01.49 4 14.37 14.37 0 00.31 3.87 13.48 13.48 0 001.62 3.38A8.2 8.2 0 0170 40a8.2 8.2 0 01-1.54 3.8z"/><path class="cls-1" d="M40 16.23a23.77 23.77 0 1019.64 10.38A23.77 23.77 0 0040 16.23zm0 2.54a21.24 21.24 0 0116 7.29H24a21.24 21.24 0 0116-7.29zm0 42.46a21.24 21.24 0 01-16-7.29h32a21.24 21.24 0 01-16 7.29zm17.9-9.82H22.09a21.23 21.23 0 010-22.8H57.9a21.21 21.21 0 010 22.82z"/><path class="cls-1" d="M32.24 47.76a1.52 1.52 0 002.14 0l13.38-13.38a1.51 1.51 0 00-2.14-2.14L32.24 45.62a1.51 1.51 0 000 2.14zm2.08-8.14a4.08 4.08 0 10-4.08-4.07 4.07 4.07 0 004.08 4.07zm0-5.63a1.56 1.56 0 11-1.56 1.56A1.56 1.56 0 0134.32 34zm7.29 10.46a4.08 4.08 0 104.07-4.08 4.08 4.08 0 00-4.07 4.08zm5.63 0a1.56 1.56 0 11-1.56-1.56 1.56 1.56 0 011.56 1.56z"/></svg>