<svg id="圖層_1" data-name="圖層 1" xmlns="http://www.w3.org/2000/svg" viewBox="0 0 80 80"><path d="M31.26 66.27a6.26 6.26 0 005.63 1.62 7.17 7.17 0 004.35-2.53 2.76 2.76 0 012.38-1c1.1.06 2.2 0 3.3 0a6.7 6.7 0 005-1.77c3.27-3.19 6.52-6.4 9.69-9.68a5.37 5.37 0 00-.26-7.67 17.53 17.53 0 00-2.74-1.67 5.48 5.48 0 00-5.37-7.76A5.77 5.77 0 0049 30c.2-.22.32-.37.46-.51 2-2.05 4.15-4.06 6.14-6.17a5.64 5.64 0 00-2.21-9 5.56 5.56 0 00-3.26 0 11.57 11.57 0 00-2.38 1.49 20.6 20.6 0 00-2.11 2.07l-.41.4-13 13c-.21.21-.43.39-.78.71v-2.43a5.64 5.64 0 00-5.53-5.59 5.53 5.53 0 00-5.44 5.62c0 3.53-.06 7.05 0 10.57a6.27 6.27 0 01-1.73 4.66 6.58 6.58 0 00.07 9q6.09 6.31 12.44 12.45zm-10.45-20A7.34 7.34 0 0023 40.82c-.05-3.66 0-7.33 0-11a4.18 4.18 0 01.48-1.93 2.78 2.78 0 013.13-1.29 3 3 0 012.21 3c0 1.41.06 2.82 0 4.22a2.51 2.51 0 01-.53 1.32A18 18 0 0127 36.45a1.26 1.26 0 000 1.82 1.31 1.31 0 001.82 0c.11-.1.2-.2.3-.3l18.05-18 .25-.26c.74-.73 1.45-1.5 2.22-2.2a2.78 2.78 0 013.06-.57 2.72 2.72 0 011.78 2.37 3.21 3.21 0 01-1.1 2.71q-6.18 6.05-12.32 12.21c-.74.74-.81 1.5-.22 2.06s1.28.48 2-.22c.92-.91 1.82-1.85 2.76-2.74a2.89 2.89 0 014.16 0 2.94 2.94 0 01-.08 4.11c-.35.37-.74.7-1 1.1a1.16 1.16 0 00.14 1.67 1.14 1.14 0 001.61.11c.42-.33.74-.8 1.18-1.08a4.76 4.76 0 011.79-.82A2.73 2.73 0 0156.2 40a3 3 0 01-.51 3.31l-3 3a1.28 1.28 0 000 1.83 1.24 1.24 0 001.81 0c.41-.35.75-.77 1.16-1.12a2.86 2.86 0 014.68 1.48 3.1 3.1 0 01-1.05 3.11c-2.8 2.78-5.62 5.55-8.36 8.38a5.26 5.26 0 01-4.36 1.79c-.73 0-1.47.06-2.2 0A6 6 0 0039 64a4.2 4.2 0 01-6.31.18q-6-5.86-11.84-11.83a4.2 4.2 0 01-.04-6.12zM9.84 41.05a1.34 1.34 0 00-1.34-1.34H1.63a1.34 1.34 0 000 2.68H8.5a1.34 1.34 0 001.34-1.34zm1.41 15.42L5.3 60.18A1.34 1.34 0 004.87 62a1.33 1.33 0 001.13.66 1.41 1.41 0 00.71-.2l5.94-3.71a1.34 1.34 0 00-1.41-2.28zM5.3 21.92l5.94 3.71a1.34 1.34 0 00.71.2 1.34 1.34 0 00.72-2.47l-5.95-3.72a1.34 1.34 0 00-1.42 2.28zm73.07 17.79H71.5a1.34 1.34 0 100 2.68h6.87a1.34 1.34 0 000-2.68zM68.05 25.83a1.34 1.34 0 00.71-.2l5.94-3.71a1.34 1.34 0 10-1.42-2.28l-6 3.72a1.34 1.34 0 00.72 2.47zm-.71 32.92l5.94 3.71a1.41 1.41 0 00.71.2 1.33 1.33 0 001.14-.66 1.34 1.34 0 00-.43-1.85l-6-3.71a1.34 1.34 0 00-1.41 2.28z" fill="#3a74ba"/></svg>