<svg id="圖層_1" data-name="圖層 1" xmlns="http://www.w3.org/2000/svg" viewBox="0 0 62.51 62.51"><defs><clipPath id="clip-path"><path fill="none" d="M0 0h62.51v62.51H0z"/></clipPath></defs><g clip-path="url(#clip-path)"><path d="M31.26 0A31.26 31.26 0 110 31.26 31.25 31.25 0 0131.26 0" fill="#005bac"/><path d="M24.7 29.22h-3.66v11.06h-1.99V29.22h-3.66v-1.7h9.31v1.7zm.93 4.85a7.07 7.07 0 011.69-4.9 5.86 5.86 0 014.57-1.87 5.51 5.51 0 014.33 1.81 6.63 6.63 0 011.64 4.64 7 7 0 01-1.67 4.87 5.71 5.71 0 01-4.5 1.88 5.7 5.7 0 01-4.38-1.8 6.52 6.52 0 01-1.68-4.63m2.06-.17a5.43 5.43 0 001.07 3.5 3.54 3.54 0 002.91 1.36 3.69 3.69 0 003-1.29A5.34 5.34 0 0035.74 34a5.63 5.63 0 00-1-3.58 3.53 3.53 0 00-2.95-1.32 3.64 3.64 0 00-3 1.37 5.35 5.35 0 00-1.1 3.47M42 35.62v4.66h-2V27.52h3.85a4.87 4.87 0 013.32 1 3.65 3.65 0 011.16 2.88A3.84 3.84 0 0147 34.53a4.87 4.87 0 01-3.41 1.1zm0-6.44V34h1.41c1.91 0 2.87-.81 2.87-2.45s-.92-2.33-2.75-2.33z" fill="#fefeff"/><path stroke="#fff" stroke-miterlimit="10" fill="none" d="M23.05 20.34l8.14-8.14 8.14 8.14"/></g></svg>