<svg id="圖層_1" data-name="圖層 1" xmlns="http://www.w3.org/2000/svg" viewBox="0 0 80 80"><defs><style>.cls-1{fill:#3a74ba}</style></defs><path class="cls-1" d="M55.52 35.09l-.1-.11v-9.5a15.42 15.42 0 00-30.84 0V35l-.1.11a20.9 20.9 0 1031 0zM40 12.48a13 13 0 0113 13V32l-.34.56-.3-.32a20.7 20.7 0 00-24.74 0l-.53.39-.1-.71v-6.44a13 13 0 0113.01-13zm0 55.05A18.49 18.49 0 1158.49 49 18.51 18.51 0 0140 67.53z"/><path class="cls-1" d="M46.12 44.61a6.12 6.12 0 00-12.24 0 6 6 0 001.57 4l.12.14-1.67 9.4a1.23 1.23 0 001.19 1.42h9.82a1.23 1.23 0 001.19-1.42l-1.67-9.42.12-.14a6 6 0 001.57-3.98zm-2.66 12.58h-6.92l1.53-8.64a1.21 1.21 0 00-.42-1.13 3.69 3.69 0 115.19-.49 3.78 3.78 0 01-.49.49 1.21 1.21 0 00-.42 1.13z"/></svg>