<svg id="圖層_1" data-name="圖層 1" xmlns="http://www.w3.org/2000/svg" viewBox="0 0 80 80"><defs><style>.cls-1{fill:#3a74ba}</style></defs><path class="cls-1" d="M52 30l2.37-2.26a2.15 2.15 0 00.41-2.25l-1.66-2.4.33-.74 2.55-.42.23-.06A2 2 0 0057.51 20v-3.35A2 2 0 0056 14.81l-2.56-.5c-.11-.26-.22-.5-.33-.71l1.46-2.11a2 2 0 00.11-2.19l-2.57-2.64a1.8 1.8 0 00-1.3-.53 1.87 1.87 0 00-1.17.41l-2.12 1.38a5.51 5.51 0 00-.81-.33l-.4-2.54-.05-.2a2 2 0 00-1.8-1.35h-3.33a2.07 2.07 0 00-2 1.55l-.41 2.5c-.3.12-.59.25-.87.38l-2.27-1.58a1.83 1.83 0 00-2.2.3L31 9a2 2 0 00-.59 1.44 1.62 1.62 0 00.39 1.05l1.45 2.11c-.11.21-.22.45-.33.71l-2.57.5h-.14a2.1 2.1 0 00-1.21 1 1.64 1.64 0 00-.16 1V20a2 2 0 001.31 1.89l2.77.47c.11.27.22.53.34.78l-1.58 2.3a2 2 0 00.32 2.27l2.38 2.38a2 2 0 002.08.38L38 28.79a8 8 0 00.77.29l.41 2.58.11.35a2.2 2.2 0 001.85 1.22h3.33A2.15 2.15 0 0046.19 32l.53-2.93q.38-.13.75-.3l2.15 1.46A1.87 1.87 0 0052 30m-5-3.69a8.6 8.6 0 01-1.71.66l-.75.21-.54 3.63h-2.5l-.58-3.63-.76-.18a6.42 6.42 0 01-1.64-.62l-.67-.41-3.06 2.12L33 26.3l2.1-3.05-.4-.67a9.32 9.32 0 01-.74-1.7l-.23-.69-3.47-.57V17.1l3.48-.68.22-.68a8 8 0 01.74-1.59l.4-.67-2.1-3.05 1.72-1.72 2.94 2 .64-.32a10.68 10.68 0 011.85-.78l.73-.22.56-3.49H44l.6 3.75.89.12a3.84 3.84 0 011.47.57l.65.4 3.14-2 1.65 1.65-2.15 3.11.4.67a8 8 0 01.74 1.59l.23.68 3.48.67v2.52l-3.48.58-.23.69a12.17 12.17 0 01-.67 1.54l-.44.9 2.11 2.93-1.8 1.73-2.92-2z"/><path class="cls-1" d="M42.68 11.16a7.2 7.2 0 107.19 7.21 7.22 7.22 0 00-7.19-7.21m0 12a4.78 4.78 0 114.77-4.77 4.78 4.78 0 01-4.77 4.77M76.9 44.32l-2.56-.5c-.11-.25-.22-.49-.33-.71L75.47 41a2 2 0 00.11-2.2L73 36.18a1.81 1.81 0 00-1.3-.54 1.8 1.8 0 00-1.17.42l-2.12 1.37a5.44 5.44 0 00-.81-.32l-.41-2.54v-.2A2 2 0 0065.37 33H62a2.07 2.07 0 00-2 1.54l-.42 2.51-.86.37-2.31-1.58a1.84 1.84 0 00-2.2.31l-2.36 2.35a2 2 0 00-.51 1.5 1.71 1.71 0 00.38 1l1.46 2.1c-.11.22-.22.46-.33.71l-2.57.5h-.15a2.11 2.11 0 00-1.2 1 1.56 1.56 0 00-.16 1v3.09a2 2 0 001.31 1.89l2.77.48c.1.26.22.53.34.77l-1.58 2.3a2 2 0 00.31 2.3l2.39 2.38a2 2 0 002.06.38l2.53-1.68a7.15 7.15 0 00.77.29l.41 2.58.11.35a2.2 2.2 0 001.81 1.3h3.33a2.14 2.14 0 001.73-1.21l.52-2.94a7 7 0 00.76-.29l2.15 1.46a1.88 1.88 0 002.35-.25l2.37-2.26a2.17 2.17 0 00.45-2.25L74 52.6c.12-.24.23-.49.34-.74l2.53-.42.23-.06a2 2 0 001.33-1.89v-3.32a2 2 0 00-1.52-1.85M76 49.13l-3.48.57-.23.7a12.83 12.83 0 01-.67 1.54l-.44.9 2.11 2.93-1.79 1.72-2.92-2-.64.33a8.07 8.07 0 01-1.71.67l-.75.2-.59 3.63h-2.5l-.57-3.63-.76-.2a6.89 6.89 0 01-1.63-.62l-.67-.41-3.06 2.12-1.76-1.76L56 52.76l-.4-.66a9.64 9.64 0 01-.74-1.7l-.23-.7-3.48-.57v-2.51l3.48-.69.23-.67a8 8 0 01.74-1.59L56 43l-2.1-3.06 1.71-1.71 2.94 2 .64-.31a10.34 10.34 0 011.86-.78l.73-.22.55-3.49h2.57l.59 3.74.89.13a3.57 3.57 0 011.47.57l.66.39 3.14-2 1.64 1.64-2.14 3.1.4.67a8 8 0 01.74 1.59l.22.67 3.49.68z"/><path class="cls-1" d="M63.58 40.68a7.2 7.2 0 107.2 7.2 7.21 7.21 0 00-7.2-7.2m0 12a4.78 4.78 0 114.78-4.78 4.78 4.78 0 01-4.78 4.78m-40.72-2.99a2.08 2.08 0 012.19 1.94 1.61 1.61 0 003.22 0 5.19 5.19 0 00-3.8-4.89v-.08a1.61 1.61 0 10-3.21 0v.08a5.19 5.19 0 00-3.8 4.89 5.29 5.29 0 005.4 5.15 1.95 1.95 0 110 3.87 2.08 2.08 0 01-2.19-1.94 1.61 1.61 0 00-3.21 0 5.17 5.17 0 003.8 4.89v.28a1.61 1.61 0 103.21 0v-.28a5.17 5.17 0 003.8-4.89 5.29 5.29 0 00-5.41-5.14 2 2 0 110-3.88"/><path class="cls-1" d="M22.86 34A21.23 21.23 0 1044.1 55.27 21.26 21.26 0 0022.86 34m0 40a18.81 18.81 0 1118.81-18.73 18.83 18.83 0 01-18.81 18.81"/><path class="cls-1" d="M22.86 38.93a16.34 16.34 0 1016.35 16.34 16.36 16.36 0 00-16.35-16.34m0 30.26a13.92 13.92 0 1113.92-13.92 13.94 13.94 0 01-13.92 13.92m39.25-52.55h.06a1.2 1.2 0 001.2-1.15l.18-3.66A21.18 21.18 0 0166 17.74a28.54 28.54 0 01.16 10 1.21 1.21 0 001 1.41h.22a1.2 1.2 0 001.19-1 30.52 30.52 0 00-.18-11 23.94 23.94 0 00-2.43-6.08l2.77 1.16a1.21 1.21 0 00.91-2.23L63 7.24a1.23 1.23 0 00-1.12.1 1.22 1.22 0 00-.56 1L61 15.37a1.2 1.2 0 001.15 1.27m7.75 51.11l-6.76-2.08a1.21 1.21 0 00-1.52.8 1.22 1.22 0 00.8 1.52L66 69.07a20.35 20.35 0 01-6.4.93 28.55 28.55 0 01-9.74-2.31 1.21 1.21 0 10-1 2.2 30.5 30.5 0 0010.69 2.54h.36a23.38 23.38 0 006.14-.86L64.24 74a1.22 1.22 0 00.24 1.7 1.25 1.25 0 00.73.24 1.2 1.2 0 001-.48l4.34-5.77a1.25 1.25 0 00.18-1.11 1.22 1.22 0 00-.8-.78M2.79 31.4a1.24 1.24 0 00.86-.35A28.67 28.67 0 0112 25.48a21.53 21.53 0 016.26-1.34l-2.91 2.23a1.21 1.21 0 00-.22 1.7 1.21 1.21 0 001.69.22L22.4 24a1.23 1.23 0 00.48-1 1.25 1.25 0 00-.56-1l-6.08-3.9a1.21 1.21 0 00-1.31 2l2.53 1.62a23.2 23.2 0 00-6.38 1.47 30.39 30.39 0 00-9.14 6.11 1.21 1.21 0 00.85 2.06"/></svg>