<svg id="圖層_1" data-name="圖層 1" xmlns="http://www.w3.org/2000/svg" viewBox="0 0 80 80"><defs><style>.cls-1{fill:#3a74ba}</style></defs><path class="cls-1" d="M67.54 74.87H58.1a14.22 14.22 0 10-16.43 0h-8.06a43.48 43.48 0 01-12.92-2 26.79 26.79 0 01-2.93-1.06c-4.44-2-7-5-7.82-9-2.69-13.35 14.82-33.75 17.64-36.92h12.07A112.82 112.82 0 0147.55 36a1.3 1.3 0 002.14-1.49 114.91 114.91 0 00-7-9.1 4.65 4.65 0 00.63-8C49 12.63 49.9 6.83 48.16 4.14 47 2.31 44.82 2 42.69 3.31a8.27 8.27 0 01-5.4 1.27 33.54 33.54 0 00-7.36 0 8.24 8.24 0 01-5.39-1.27c-2.14-1.33-4.28-1-5.47.83-1.74 2.69-.83 8.49 4.85 13.27a4.65 4.65 0 00.64 8c-4.9 5.69-19.9 24.44-17.18 38 1 4.85 4.11 8.51 9.27 10.87a27.79 27.79 0 003.27 1.19 46 46 0 0013.69 2.07h33.93a1.3 1.3 0 000-2.6zM27 23.28h-.37a2.07 2.07 0 010-4.14h14a2.07 2.07 0 010 4.14H27zM21.26 5.56c.14-.22.56-.87 1.9 0a10.93 10.93 0 007.06 1.64 30.83 30.83 0 016.79 0 11 11 0 007.06-1.64c1.33-.84 1.76-.19 1.9 0 1.12 1.74.13 6.85-5.78 11H27c-5.87-4.15-6.87-9.26-5.74-11zm17 57.73a11.61 11.61 0 1112.15 11.58h-1a11.62 11.62 0 01-11.13-11.58z"/><path class="cls-1" d="M62.79 28.44a10.15 10.15 0 1010.15 10.15 10.16 10.16 0 00-10.15-10.15zm0 17.69a7.54 7.54 0 117.54-7.54 7.55 7.55 0 01-7.54 7.54zM23.88 40.3a9.74 9.74 0 109.73-9.74 9.74 9.74 0 00-9.73 9.74zm16.86 0a7.13 7.13 0 11-7.13-7.13 7.14 7.14 0 017.13 7.13z"/><path class="cls-1" d="M62.82 37.7a1 1 0 111.12-1 .82.82 0 001.64 0 2.64 2.64 0 00-1.94-2.49.82.82 0 00-1.64 0 2.64 2.64 0 00-1.94 2.49 2.7 2.7 0 002.76 2.63 1 1 0 11-1.12 1 .82.82 0 00-1.64 0 2.65 2.65 0 001.94 2.5V43a.82.82 0 001.64 0v-.14a2.65 2.65 0 001.94-2.5 2.7 2.7 0 00-2.76-2.66zm-29.09 1.67a1 1 0 111.12-1 .82.82 0 101.64 0 2.64 2.64 0 00-1.94-2.49.82.82 0 00-1.64 0 2.64 2.64 0 00-1.91 2.5A2.7 2.7 0 0033.73 41a1 1 0 110 2 1.06 1.06 0 01-1.12-1A.82.82 0 0031 42a2.65 2.65 0 001.94 2.5v.14a.82.82 0 001.64 0v-.14a2.65 2.65 0 001.91-2.5 2.7 2.7 0 00-2.76-2.63zM50 62.25a1.51 1.51 0 111.7-1.5 1.24 1.24 0 102.48 0A4 4 0 0051.27 57v-.1a1.24 1.24 0 00-2.48 0v.1a4 4 0 00-2.94 3.78 4.1 4.1 0 004.18 4 1.51 1.51 0 11-1.7 1.49 1.24 1.24 0 00-2.48 0A4 4 0 0048.79 70v.21a1.24 1.24 0 102.48 0V70a4 4 0 002.94-3.79A4.09 4.09 0 0050 62.25z"/></svg>