<svg id="圖層_1" data-name="圖層 1" xmlns="http://www.w3.org/2000/svg" viewBox="0 0 80 80"><defs><style>.cls-1{fill:#3a74ba}</style></defs><path class="cls-1" d="M49.73 39.19a1.28 1.28 0 10-1.27-1.27 1.27 1.27 0 001.27 1.27zm-6.33 4.08c0 1 1.14 1.69 2.83 1.69s2.83-.68 2.83-1.69a1 1 0 00-1.82-.47l-.05.07h-.08a3.5 3.5 0 01-1.76 0h-.08v-.07a1 1 0 00-1.83.47zm-.67-4.08a1.28 1.28 0 10-1.28-1.27 1.28 1.28 0 001.28 1.27z"/><path class="cls-1" d="M46.63 13a29.09 29.09 0 00-17.29 5.68l-.31.22v-.37a2.12 2.12 0 00-.21-.78L26.12 15a1.79 1.79 0 00-2.3-.11l-2.35 1.52-.11-.05a6.38 6.38 0 00-.82-.33h-.13l-.49-3a1.86 1.86 0 00-1.68-1.25h-3.49A1.9 1.9 0 0013 13.05L12.45 16l-.12.05c-.31.12-.6.25-.89.38l-.12.05-2.52-1.74a1.67 1.67 0 00-2 .29l-2.5 2.46a1.9 1.9 0 00-.56 1.35 1.43 1.43 0 00.35 1l1.61 2.31-.06.12c-.11.22-.23.46-.33.72v.11l-2.95.59a2 2 0 00-1.13 1 1.44 1.44 0 00-.14.93v3.28a1.92 1.92 0 001.24 1.78l3 .51v.12a8.08 8.08 0 00.35.8v.11L4 34.7a1.88 1.88 0 00.3 2.12l2.5 2.5a1.89 1.89 0 001.93.36l2.72-1.81.11.05c.23.1.48.19.79.29h.12l.45 2.84.12.34a2.08 2.08 0 001.73 1.12h2.51v.21A29.38 29.38 0 1046.63 13zM18.55 36.59l-.62 3.85h-3l-.62-3.85-.65-.18a6.59 6.59 0 01-1.77-.68l-.58-.35-3.24 2.24L6 35.52l2.2-3.24-.35-.58a10 10 0 01-.8-1.82l-.2-.61-3.7-.61v-3l3.7-.72.2-.59a8.7 8.7 0 01.8-1.72l.35-.58L6 18.81l2-2.06 3.13 2.16.56-.28a11.1 11.1 0 012-.84l.63-.18.61-3.72h3l.63 4 .78.1a4.34 4.34 0 011.62.63l.57.35 3.33-2.16 2 2-2.28 3.3.35.59a8.14 8.14 0 01.8 1.71l.2.59 3.7.71v3l-3.7.61-.2.61a11.45 11.45 0 01-.73 1.52l-.44.9 2.25 3.12-2.11 2.06-3.11-2.12-.59.29-.37.17-.14.06a9.38 9.38 0 01-1.33.48zm44.78 27.34a27 27 0 01-16.7 5.76 27.3 27.3 0 01-17.48-6.36l-.08-.07v-.11c.34-6.15 4.54-10.95 9.57-10.95h.74v.25a3.15 3.15 0 000 .53c0 1.85 1.44 3.51 3.67 4.24a7.27 7.27 0 002.2.3h2.1a7.22 7.22 0 002.2-.3c2.23-.73 3.68-2.39 3.68-4.24a4.55 4.55 0 000-.53v-.25h.75c5.2 0 9.5 5.19 9.58 11.56v.11zM37.47 31v.06a.83.83 0 00-.16.2.57.57 0 00-.08.13v.08a9.37 9.37 0 01-.79 1.53c-.09.16-.2.32-.31.49l-.07.1a5.85 5.85 0 01-.48.59l-.31.34-.06-.46c-.35-2.62-.45-7.43 2.79-10.06a7.06 7.06 0 014.51-1.52H50A7 7 0 0154.48 24c3.22 2.65 3.12 7.46 2.78 10.09l-.06.45-.32-.33c-.16-.18-.32-.37-.49-.6-.14-.2-.25-.38-.35-.54a8.45 8.45 0 01-.69-1.5.93.93 0 000-.1l-.08-.13a.17.17 0 000-.05 1 1 0 00-.37-.31h-.08a1.07 1.07 0 00-.41-.06h-.31a1.07 1.07 0 00-.36.2c-.87.68-6.13 2.51-9.68 1.4-2.1-.65-5.25-1.52-5.61-1.62h-.07a.2.2 0 01-.11 0 .94.94 0 00-.29 0h-.14a.9.9 0 00-.24.11h-.09zm-.37 4.93v2.65l-.26-.05a1.32 1.32 0 01-.57-.3 2.2 2.2 0 01-.71-1.41v-.14l.12-.08.12-.09a5.38 5.38 0 00.85-.66l.08-.06.37-.35zm19.81.89a2.26 2.26 0 01-.72 1.41 1.32 1.32 0 01-.57.3l-.26.05v-3.14l.37.35a6 6 0 001 .74l.08.06.12.07zm-17.86-3.77l.28.08c.75.21 2.65.75 4.11 1.2 3.13 1 7.05.21 9.67-.82l.3-.12v7.1A7.21 7.21 0 0149.3 47a6.83 6.83 0 01-1.31.47h-.16a7.2 7.2 0 01-3.2 0h-.17a6.64 6.64 0 01-1.29-.47 7.22 7.22 0 01-4.12-6.46zm2.64 18.77a.55.55 0 000-.12.56.56 0 000-.12v-.07a6.81 6.81 0 001.33-2.22l.08-.19.2.06a2 2 0 00.35.09l.23.06h.17l.41.1a8 8 0 003.3 0l.43-.1h.15l.23-.06a2.37 2.37 0 00.36-.09l.2-.06.07.19a6.81 6.81 0 001.33 2.22v.19a.27.27 0 00.05.12A1.9 1.9 0 0151.2 53c0 1-.91 1.92-2.32 2.38a5 5 0 01-1.6.21h-2.1a5 5 0 01-1.6-.21C42.17 54.9 41.26 54 41.26 53a1.86 1.86 0 01.43-1.18zM65.59 62l-.31.3-.06-.42c-.86-6.62-5.76-11.61-11.39-11.61h-1.74l-.09-.1a5.76 5.76 0 01-1-1.77v-.16l.14-.09a9.14 9.14 0 004.18-7.45v-.2h.2a3.79 3.79 0 003.34-4v-.34c.37-1.54 2-9.45-3.15-13.67a9 9 0 00-5.75-2h-7.47a9 9 0 00-5.75 2c-5.1 4.22-3.51 12.12-3.14 13.66v.14a1.49 1.49 0 000 .21 3.8 3.8 0 003.34 4h.2v.2a9.13 9.13 0 004.17 7.45l.15.09-.06.16a5.36 5.36 0 01-1 1.77l-.06.08h-1.7c-5.51 0-10.28 4.57-11.34 10.87l-.07.42-.3-.31a27.12 27.12 0 01-7.58-18.82v-.16a.66.66 0 000-.14V42l.06-.06a2.87 2.87 0 00.42-.55l.57-3.17h.12a8.26 8.26 0 00.77-.31h.11l2.36 1.61a1.77 1.77 0 002.2-.25l2.48-2.37a2 2 0 00.39-2.1L27 32.14l.1-.14c.12-.25.24-.5.34-.76v-.11l3-.51a1.92 1.92 0 001.23-1.78v-3.47a1.93 1.93 0 00-1.44-1.73l-2.85-.56.3-.29A27.25 27.25 0 0165.59 62z"/><path class="cls-1" d="M23.64 27.84v-.26a2.71 2.71 0 000-.41 7.34 7.34 0 10-7.34 7.33 7.23 7.23 0 001.71-.22 7.33 7.33 0 005.56-6.44zm-4.3 3.62a5.22 5.22 0 11-3-9.52 5.27 5.27 0 015.22 5.11v.12a5.23 5.23 0 01-2.22 4.29z"/></svg>