<svg id="圖層_1" data-name="圖層 1" xmlns="http://www.w3.org/2000/svg" viewBox="0 0 80 80"><defs><style>.cls-1{fill:#3a74ba}</style></defs><path class="cls-1" d="M60.23 70.5H19.77a2.13 2.13 0 01-2.13-2.13V11.63a2.13 2.13 0 012.13-2.13h34a1 1 0 110 2h-33a1.12 1.12 0 00-1.12 1.11v54.77a1.12 1.12 0 001.12 1.12h38.45a1.12 1.12 0 001.12-1.12V18.1a1 1 0 012 0v50.27a2.13 2.13 0 01-2.13 2.13z"/><path class="cls-1" d="M61.36 19.11h-7.61a1 1 0 01-1-1V10.5a1 1 0 01.62-.91 1 1 0 011.09.22l7.61 7.6a1 1 0 010 1.42 1 1 0 01-.72.3zm-6.6-2h4.16l-4.16-4.17zM40 63a12.07 12.07 0 1112.07-12.1A12.06 12.06 0 0140 63zm0-22.12a10 10 0 1010 10 10 10 0 00-10-10zm0-20.96H26.59a1 1 0 11-.2-2 .67.67 0 01.2 0H40a1 1 0 010 2zm13.75 6.66H26.59a1 1 0 01-.2-2h27.36a1 1 0 010 2zm0 6.64H26.59a1 1 0 110-2h27.16a1 1 0 110 2z"/><path class="cls-1" d="M51.06 51.86H40a1 1 0 01-1-1v-11a1 1 0 112 0v10h10A1 1 0 0152 51a1 1 0 01-.92.91z"/><path class="cls-1" d="M47.44 60.08a1 1 0 01-.75-.33l-7.44-8.21a1 1 0 011.5-1.36l7.44 8.22a1 1 0 01-.1 1.43 1 1 0 01-.65.25z"/><path class="cls-1" d="M35.82 62.14a1 1 0 01-.38-.07 1 1 0 01-.55-1.31L38 53.12l-7.24 3.93a1 1 0 01-1.34-.47 1 1 0 01.38-1.29L39.52 50a1 1 0 011.16.14 1 1 0 01.23 1.09l-4.16 10.29a1 1 0 01-.93.62z"/></svg>