<svg id="圖層_1" data-name="圖層 1" xmlns="http://www.w3.org/2000/svg" viewBox="0 0 80 80"><defs><style>.cls-1{fill:#3a74ba}</style></defs><path class="cls-1" d="M13.19 28.21a1.08 1.08 0 001.08-1.08V16.67a2.4 2.4 0 012.4-2.41h10.46a1.08 1.08 0 00.21-2.15H16.67a4.58 4.58 0 00-4.56 4.56v10.46a1.08 1.08 0 001.08 1.08zm50.14-16.1H52.87a1.08 1.08 0 00-.21 2.15h10.67a2.4 2.4 0 012.4 2.41v10.46a1.08 1.08 0 102.16 0V16.67a4.58 4.58 0 00-4.56-4.56zm-36.2 53.63H16.67a2.4 2.4 0 01-2.4-2.41V52.87a1.08 1.08 0 00-2.16 0v10.46a4.58 4.58 0 004.56 4.56h10.46a1.08 1.08 0 00.21-2.15zm39.68-13.95a1.08 1.08 0 00-1.08 1.08v10.46a2.4 2.4 0 01-2.4 2.41H52.87a1.08 1.08 0 00-.21 2.15h10.67a4.58 4.58 0 004.56-4.56V52.87a1.08 1.08 0 00-1.08-1.08z"/><path class="cls-1" d="M20.11 23.65V31a1.08 1.08 0 102.16 0v-7.35a1.36 1.36 0 011.36-1.38H31a1.08 1.08 0 000-2.16h-7.35a3.54 3.54 0 00-3.54 3.52zM49 22.27h7.33a1.36 1.36 0 011.38 1.36V31a1.08 1.08 0 102.16 0v-7.35a3.54 3.54 0 00-3.52-3.54H49a1.08 1.08 0 000 2.16zM31 57.73h-7.35a1.36 1.36 0 01-1.38-1.36V49a1.08 1.08 0 10-2.16 0v7.33a3.54 3.54 0 003.52 3.54H31a1.08 1.08 0 000-2.16zm28.89-1.38V49a1.08 1.08 0 10-2.16 0v7.33a1.36 1.36 0 01-1.36 1.38H49a1.08 1.08 0 000 2.16h7.33a3.54 3.54 0 003.54-3.52zM12.29 40a1.08 1.08 0 001.07 1.08h53.28a1.08 1.08 0 000-2.16H13.36A1.08 1.08 0 0012.29 40z"/></svg>