<svg id="圖層_1" data-name="圖層 1" xmlns="http://www.w3.org/2000/svg" viewBox="0 0 80 80"><defs><style>.cls-1{fill:#3a74ba}</style></defs><path class="cls-1" d="M67.11 61.62q-3-3.15-6.11-6.27l-2.19-2.24c-.9-.92-1.13-.92-2.13-.53l-.14.07-3.07-3.15.12-.17a25.85 25.85 0 005-15.37c0-14.27-11.21-25.86-25.12-25.9S8.28 19.56 8.25 33.82s11.21 25.86 25.12 25.9a24.73 24.73 0 0012.35-3.28l.15-.09.14.12L49.49 60l-.11.15a1.38 1.38 0 00.22 1.92l3.94 4q2.37 2.48 4.76 4.93a5.88 5.88 0 004.06 1.78h.25A6.25 6.25 0 0068.44 69a6.66 6.66 0 00-1.33-7.38zM33.5 57.18C21 57.18 10.85 46.78 10.85 34S21 10.72 33.5 10.72 56.14 21.12 56.14 34C56.12 46.78 46 57.16 33.5 57.18zm14.74-2.3l.41-.43a26.19 26.19 0 003-2.77l.16-.18 2.82 3-3.46 3.5zm18.18 12.75a3.86 3.86 0 01-3.25 2.69 5.06 5.06 0 01-.68.05 3.06 3.06 0 01-2.27-.93c-2-2-4-4-5.87-6l-2.16-2.17-.19-.22 5.78-5.92.16.22a3.11 3.11 0 01.25.38 7.1 7.1 0 00.66.87l3.32 3.4c1.14 1.12 2.24 2.25 3.31 3.36a4 4 0 01.94 4.27z"/><path class="cls-1" d="M33.81 15.57a18.13 18.13 0 00-17.9 18.34 18.13 18.13 0 0017.88 18.36A18.13 18.13 0 0051.69 34a18.15 18.15 0 00-17.88-18.43zm0 34.13a15.61 15.61 0 01-15.42-15.8 15.62 15.62 0 0115.4-15.82 15.62 15.62 0 0115.43 15.8V34a15.63 15.63 0 01-15.41 15.8z"/><path class="cls-1" d="M40.83 26.93a4 4 0 00-4.25 1.14c-1 1-2 2-3 2.94l-1.32 1.28-.15.15-.22-.2-.5-.48a4.28 4.28 0 00-2.95-1.23 3.92 3.92 0 00-2.93 1.32 4.29 4.29 0 00.18 5.95c1.45 1.49 2.7 2.69 3.77 3.76a3.92 3.92 0 005.64 0l.1-.11c2.64-2.7 5.19-5.42 7.35-7.73a4 4 0 001.08-3.45 3.92 3.92 0 00-2.8-3.34zm-.12 5.35c-2.17 2.32-4.5 4.74-7 7.38a1.87 1.87 0 01-1.35.66A1.89 1.89 0 0131 39.7q-1.86-1.8-3.6-3.56a1.82 1.82 0 01-.26-2.51 1.72 1.72 0 012.46-.27 1.42 1.42 0 01.24.25l.65.63c.27.28.53.55.81.81a1.18 1.18 0 001.67.28 1.43 1.43 0 00.27-.28l3.4-3.57 1.56-1.65c.9-.92 1.56-.76 2-.49a2.64 2.64 0 011.16 1.13c.39.68-.63 1.79-.65 1.81z"/></svg>