<svg id="圖層_1" data-name="圖層 1" xmlns="http://www.w3.org/2000/svg" viewBox="0 0 80 80"><defs><style>.cls-1{fill:#3a74ba}</style></defs><path class="cls-1" d="M60.49 31.74a19.92 19.92 0 00-14.15-5.85 20 20 0 00-14.1 34.19 19.85 19.85 0 0014.09 5.86 20.08 20.08 0 0020-20.06 19.84 19.84 0 00-5.84-14.14zM46.31 63.63a17.77 17.77 0 01-17.68-17.71 17.71 17.71 0 0117.69-17.71 17.71 17.71 0 110 35.42z"/><path class="cls-1" d="M46.34 57.82A1.15 1.15 0 0045.19 59v1.56a1.16 1.16 0 002.31 0V59a1.16 1.16 0 00-1.16-1.18zm0-23.82a1.16 1.16 0 001.16-1.16v-1.58a1.16 1.16 0 10-2.31 0v1.55A1.15 1.15 0 0046.34 34zM33.26 44.74H31.7a1.16 1.16 0 000 2.31h1.56a1.16 1.16 0 100-2.31zM61 47.05a1.16 1.16 0 100-2.31h-1.58a1.16 1.16 0 000 2.31zm-5-11.88L48.65 42a4.39 4.39 0 00-5 .24l-4.38-4A1.15 1.15 0 1037.73 40l4.48 4.12a4.51 4.51 0 108.64 1.81 4.41 4.41 0 00-.59-2.2l7.33-6.84A1.16 1.16 0 1056 35.17zM46.34 48.1a2.2 2.2 0 110-4.4 2.17 2.17 0 011.48.59v.06c0 .06.06 0 .08.06a2.15 2.15 0 01.6 1.49 2.21 2.21 0 01-2.16 2.2z"/><path class="cls-1" d="M51.8 19.91v-3.37h.94a4.52 4.52 0 000-9h-12.8a4.52 4.52 0 000 9h.94v3.37a26.64 26.64 0 00-16.81 11.54H12.78a1.16 1.16 0 000 2.31h10a26.24 26.24 0 00-2.36 6.55H4.23a1.16 1.16 0 000 2.31H20a25.63 25.63 0 00-.23 3.3c0 .76 0 1.51.11 2.26H11.8a1.16 1.16 0 100 2.31h8.38a26.44 26.44 0 001.69 5.81H10.63a1.16 1.16 0 100 2.31H23a26.59 26.59 0 0037.14 10 1.16 1.16 0 00-1.2-2A24.3 24.3 0 1165.36 61a1.16 1.16 0 00.19 1.63 1.15 1.15 0 001.62-.19 26.31 26.31 0 005.75-16.51A26.62 26.62 0 0051.8 19.91zm-11.86-5.69a2.21 2.21 0 010-4.41h12.8a2.21 2.21 0 010 4.41zm3.25 5.32v-3h6.3v3a24.91 24.91 0 00-6.3 0z"/><circle class="cls-1" cx="6.7" cy="57.5" r="1.27"/><circle class="cls-1" cx="63.27" cy="64.92" r="1.27"/></svg>