<svg id="圖層_1" data-name="圖層 1" xmlns="http://www.w3.org/2000/svg" viewBox="0 0 80 80"><defs><style>.cls-1{fill:#3a74ba}</style></defs><path class="cls-1" d="M68.66 13.3H11.34a2.14 2.14 0 00-2.14 2.14v20.38A2.14 2.14 0 0011.34 38h8.76v28.64a2.07 2.07 0 002.07 2.06h35.66a2.07 2.07 0 002.07-2.06V38h8.76a2.14 2.14 0 002.14-2.14V15.44a2.14 2.14 0 00-2.14-2.14zM20.1 25.45v1.81h-1.54v-2h1.59a1.89 1.89 0 00-.05.19zm2.07 41.49a.31.31 0 01-.31-.3v-6.88h.35A7.75 7.75 0 0129 65.92a8.6 8.6 0 01.11 1zm36-.3a.31.31 0 01-.31.3h-7a8.6 8.6 0 01.11-1 7.75 7.75 0 016.83-6.12h.35zm0-30.44v21.62h-.35a9.7 9.7 0 00-8.82 8.1c0 .33-.09.67-.11 1H31.1c0-.35-.06-.69-.11-1a9.7 9.7 0 00-8.78-8.08h-.35V25.45a.31.31 0 01.31-.31h35.66a.31.31 0 01.31.31zm1.71-11h1.59v2H59.9v-1.75a1.89 1.89 0 00-.05-.23zM69 35.82a.38.38 0 01-.38.38H59.9v-7h2.53a1 1 0 001-1v-4a1 1 0 00-1-1H17.57a1 1 0 00-1 1v4a1 1 0 001 1h2.53v7h-8.76a.38.38 0 01-.38-.38V15.44a.38.38 0 01.38-.38h57.32a.38.38 0 01.38.38z"/><path class="cls-1" d="M47.79 40.62h-.08a4.93 4.93 0 00-2-2.66 4.41 4.41 0 00-2.47-.77 4.47 4.47 0 00-2.44.81 4.94 4.94 0 00-2.16 4.12 1.77 1.77 0 11-1.76-2 1.45 1.45 0 000-2.9 4.43 4.43 0 00-2.47.77 5 5 0 00-1.95 2.66h-.25a1.46 1.46 0 000 2.91h.25A4.68 4.68 0 0036.88 47a4.78 4.78 0 004.66-4.88 1.76 1.76 0 111.75 2 1.45 1.45 0 100 2.9 4.68 4.68 0 004.42-3.43h.08a1.46 1.46 0 000-2.91z"/><path class="cls-1" d="M53.89 37.08c-.1-.29-.21-.59-.33-.88a14.78 14.78 0 00-27.12 0c-.12.29-.23.59-.33.88s-.21.58-.3.88a14.78 14.78 0 1028.38 0c-.09-.3-.19-.59-.3-.88zM40 54.66A12.56 12.56 0 0128.11 38c.11-.29.21-.59.34-.88s.27-.59.42-.88a12.59 12.59 0 0122.26 0c.15.29.29.58.42.88s.23.59.34.88A12.56 12.56 0 0140 54.66z"/></svg>