<svg id="圖層_1" data-name="圖層 1" xmlns="http://www.w3.org/2000/svg" viewBox="0 0 80 80"><defs><style>.cls-1{fill:#3a74ba}</style></defs><path class="cls-1" d="M68.61 17.27c-.49-.61-1-1.2-1.54-1.78a36.39 36.39 0 00-54.14 0c-.53.58-1 1.17-1.54 1.78a36.38 36.38 0 000 45.45c.49.62 1 1.21 1.54 1.79a36.39 36.39 0 0054.14 0c.53-.58 1.05-1.17 1.54-1.79a36.38 36.38 0 000-45.45m-2.13.87a34.2 34.2 0 017.81 20.75H62a54.6 54.6 0 00-3.4-18.41 56.4 56.4 0 007.87-2.34M59 30.33a21.35 21.35 0 00-8-8.59q2.84-.33 5.46-.83A48.21 48.21 0 0159 30.33m5.85-14a58.7 58.7 0 01-7.12 2A29.83 29.83 0 0049.45 7a34.51 34.51 0 0115.4 9.34M41.11 5.75c5.85.56 11 5.52 14.44 13-2.68.49-5.51.87-8.47 1.11a21.17 21.17 0 00-6-1.18zm-2.22 0v13a21 21 0 00-6 1.18c-3-.24-5.79-.62-8.47-1.11 3.41-7.51 8.59-12.47 14.44-13m-9.9 16a21.4 21.4 0 00-8 8.59 48.21 48.21 0 012.54-9.42q2.63.49 5.45.83M30.55 7a29.83 29.83 0 00-8.28 11.35 58.74 58.74 0 01-7.12-2A34.38 34.38 0 0130.55 7m-17 11.15a57.81 57.81 0 007.87 2.33A54.6 54.6 0 0018 38.89H5.71a34.14 34.14 0 017.81-20.74m0 43.7a34.14 34.14 0 01-7.81-20.74H18a54.6 54.6 0 003.4 18.41 57.81 57.81 0 00-7.87 2.33M21 49.67a21.37 21.37 0 008 8.58q-2.82.34-5.45.84A48.4 48.4 0 0121 49.67m-5.85 14a58.19 58.19 0 017.12-2A29.79 29.79 0 0030.55 73a34.38 34.38 0 01-15.4-9.35m23.74 10.6c-5.85-.56-11-5.52-14.44-13 2.68-.49 5.51-.87 8.47-1.11a21 21 0 006 1.18zm0-15.19a18.91 18.91 0 01-5.65-1.2 19.12 19.12 0 01-12.3-16.75c0-.37-.06-.74-.06-1.11s0-.74.06-1.11a19.11 19.11 0 0112.3-16.75 18.61 18.61 0 015.65-1.2c.37 0 .73-.06 1.11-.06s.74 0 1.11.06a18.61 18.61 0 015.65 1.2 19.11 19.11 0 0112.3 16.75c0 .37.06.73.06 1.11s0 .74-.06 1.11a19.12 19.12 0 01-12.3 16.75 18.91 18.91 0 01-5.65 1.2c-.37 0-.73.06-1.11.06s-.74 0-1.11-.06M59 49.67a48.4 48.4 0 01-2.54 9.42q-2.62-.5-5.46-.84a21.33 21.33 0 008-8.58M41.11 74.25v-13a21.17 21.17 0 006-1.18c3 .24 5.79.62 8.47 1.11-3.41 7.51-8.59 12.47-14.44 13M49.45 73a29.79 29.79 0 008.28-11.36 58.7 58.7 0 017.12 2A34.38 34.38 0 0149.45 73m17-11.15a57.81 57.81 0 00-7.87-2.33A54.6 54.6 0 0062 41.11h12.29a34.14 34.14 0 01-7.81 20.74"/><path class="cls-1" d="M41.86 51v.93a1.72 1.72 0 001 1.54 1.77 1.77 0 00.77.18 1.72 1.72 0 001-.34l6.88-5.07a1.72 1.72 0 000-2.77l-5.88-4.37-1-.74a1.7 1.7 0 00-1.8-.15 1.72 1.72 0 00-.81.89 1.8 1.8 0 00-.14.64v.93h-9a1.77 1.77 0 00-1.22.51 1.72 1.72 0 00-.5 1.22v4.88A1.72 1.72 0 0032.82 51h9zm-8.53-2.23v-3.86h10.76v-2.15l5.52 4.1-5.52 4.08v-2.16H33.33zm2.05-9.2a1.69 1.69 0 001.76.15 1.72 1.72 0 00.77-.83 1.62 1.62 0 00.16-.68v-1h9.76a1.67 1.67 0 001.19-.5 1.66 1.66 0 00.5-1.19v-4.84A1.69 1.69 0 0047.83 29h-9.76v-1a1.68 1.68 0 00-2.69-1.36l-6.87 5.07a1.68 1.68 0 00-.7 1.36 1.71 1.71 0 00.69 1.36l6 4.43zm.46-10.48v2.12h11.45V35H35.84v2.12l-5.43-4z"/></svg>